<svg width="514" height="347" viewBox="0 0 514 347" fill="none" xmlns="http://www.w3.org/2000/svg">
<g clip-path="url(#clip0_1959_4876)">
<g opacity="0.18">
<path opacity="0.22" d="M500.989 289.288C500.689 292.677 500.142 296.038 499.353 299.347C499.353 299.386 499.353 299.432 499.32 299.471C491.498 331.19 460.919 348.367 402.603 346.773C303.52 344.059 174.549 314.397 98.529 329.205C59.7758 336.785 32.3193 321.385 16.5051 299.471L16.4139 299.347C14.1051 296.143 12.0228 292.782 10.1821 289.288C0.149919 270.186 -2.15116 248.396 3.47442 232.767C17.0527 195.03 45.5587 179.597 49.6328 136.511C53.7069 93.4259 40.8131 73.731 91.7105 27.8803C91.7105 27.8803 145.672 -15.8167 203.029 13.9696C250.921 38.8436 280.601 36.9112 300.157 29.7216H300.228C312.209 25.3038 320.364 18.9145 326.557 15.5507C342.854 6.70195 421.585 -27.5348 455.521 47.1653C483.252 108.215 460.221 123.525 470.873 173.455C471.186 174.919 471.525 176.409 471.903 177.938C472.177 179.076 472.476 180.234 472.789 181.412C473.682 184.763 474.745 188.263 475.938 191.94C478.069 198.407 480.729 205.408 484.021 213.04C484.06 213.124 484.099 213.215 484.132 213.3C489.33 225.12 493.6 237.326 496.902 249.808C499.345 258.995 500.807 268.414 501.263 277.909C501.421 281.704 501.329 285.505 500.989 289.288Z" fill="#40A9FF"/>
</g>
<g opacity="0.18">
<path opacity="0.22" d="M500.989 289.288C500.689 292.677 500.142 296.038 499.353 299.347C499.353 299.386 499.353 299.432 499.32 299.471C491.498 331.19 460.919 348.367 402.603 346.773C303.52 344.059 174.549 314.397 98.529 329.205C59.7758 336.785 32.3193 321.385 16.5051 299.471L16.4139 299.347C14.1051 296.143 12.0228 292.782 10.1821 289.288C0.149919 270.186 -2.15116 248.396 3.47442 232.767C17.0527 195.03 45.5587 179.597 49.6328 136.511C53.7069 93.4259 40.8131 73.731 91.7105 27.8803C91.7105 27.8803 145.672 -15.8167 203.029 13.9696C250.921 38.8436 280.601 36.9112 300.157 29.7216H300.228C312.209 25.3038 320.364 18.9145 326.557 15.5507C342.854 6.70195 421.585 -27.5348 455.521 47.1653C483.252 108.215 460.221 123.525 470.873 173.455C471.186 174.919 471.525 176.409 471.903 177.938C472.177 179.076 472.476 180.234 472.789 181.412C473.682 184.763 474.745 188.263 475.938 191.94C478.069 198.407 480.729 205.408 484.021 213.04C484.06 213.124 484.099 213.215 484.132 213.3C489.33 225.12 493.6 237.326 496.902 249.808C499.345 258.995 500.807 268.414 501.263 277.909C501.421 281.704 501.329 285.505 500.989 289.288Z" fill="#40A9FF"/>
</g>
<g opacity="0.18">
<path opacity="0.22" d="M500.52 289.288C500.212 292.687 499.657 296.06 498.857 299.379V299.503C491.035 331.222 460.456 348.398 402.141 346.804C303.057 344.091 174.086 314.428 98.0663 329.237C59.3065 336.785 31.8501 321.384 16.0359 299.47L15.9446 299.347C13.6359 296.142 11.5536 292.781 9.71284 289.288C-0.319319 270.185 -2.62039 248.395 3.00518 232.766C16.5835 195.029 45.0894 179.596 49.1636 136.511C53.2377 93.4252 40.3438 73.7302 91.2413 27.8796C91.2413 27.8796 145.202 -15.8175 202.56 13.9688C250.452 38.8429 280.131 36.9105 299.687 29.7209H299.759C311.74 25.303 319.895 18.9137 326.088 15.5499C342.378 6.68166 421.129 -27.5746 455.026 47.145C482.756 108.195 459.726 123.504 470.377 173.435C470.69 174.898 471.029 176.388 471.407 177.917C471.681 179.056 471.981 180.214 472.294 181.392C473.187 184.743 474.25 188.243 475.442 191.919C477.574 198.387 480.234 205.388 483.526 213.02C483.565 213.104 483.604 213.195 483.636 213.28C488.835 225.1 493.104 237.306 496.406 249.787C498.85 258.974 500.312 268.394 500.767 277.888C500.935 281.69 500.852 285.497 500.52 289.288Z" fill="#40A9FF"/>
</g>
<path d="M395.707 177.918C395.707 177.918 403.49 168.158 416.944 165.705C430.399 163.252 469.191 163.753 469.191 163.753L470.905 173.422L395.707 177.918Z" fill="#40A9FF"/>
<path opacity="0.27" d="M500.989 289.289C500.689 292.677 500.142 296.039 499.353 299.348C499.353 299.387 499.353 299.433 499.32 299.472H16.5051L16.4139 299.348C14.1051 296.144 12.0228 292.782 10.1821 289.289H500.989Z" fill="#40A9FF"/>
<path d="M384.827 246.072H369.247C364.69 246.072 360.995 249.76 360.995 254.309V284.154C360.995 288.704 364.69 292.391 369.247 292.391H384.827C389.385 292.391 393.08 288.704 393.08 284.154V254.309C393.08 249.76 389.385 246.072 384.827 246.072Z" fill="#3F3D56"/>
<path opacity="0.27" d="M499.144 299.471C491.374 331.268 460.788 348.49 402.401 346.896C303.318 344.183 174.341 314.52 98.3204 329.329C59.5216 336.922 32.0325 321.449 16.2314 299.471H499.144Z" fill="#40A9FF"/>
<path d="M85.6873 299.471L35.0311 311.807L70.2707 311.443L118.782 299.549L85.6873 299.471ZM164.732 299.471L114.076 311.807L149.316 311.443L197.827 299.549L164.732 299.471ZM243.777 299.471L193.121 311.807L228.36 311.443L276.872 299.549L243.777 299.471ZM322.822 299.471L272.166 311.807L307.399 311.443L355.91 299.549L322.822 299.471ZM401.867 299.471L351.204 311.807L386.444 311.443L434.955 299.549L401.867 299.471ZM480.905 299.471L430.249 311.807L465.488 311.443L514 299.549L480.905 299.471Z" fill="white"/>
<path opacity="0.05" d="M399.507 299.471C387.271 303.804 374.651 307.181 362.09 310.532C348.218 314.24 334.21 317.962 319.856 318.535C311.197 318.874 302.531 318.058 294.088 316.108C291.317 315.457 288.534 314.709 285.692 314.728C280.581 314.78 275.914 317.331 271.136 319.218C258.098 324.325 243.705 324.241 229.71 324.091L169.954 323.44C159.23 323.323 147.36 322.79 139.675 315.294C138.619 314.273 137.602 312.965 137.719 311.488C137.921 308.853 141.259 307.903 143.892 307.623C159.224 305.99 174.614 304.643 189.901 302.626C195.963 301.826 201.953 300.674 207.925 299.471H399.507Z" fill="#000405"/>
<path d="M276.077 178.373L258.587 241.915L222.194 292.385L210.786 284.675L236.079 235.194L231.835 185.276L267.694 169.928L276.077 178.373Z" fill="#25233A"/>
<path d="M306.278 286.236L293.514 293.953C293.514 293.953 280.477 249.651 271.403 236.326C250.341 205.355 233.086 184.788 233.086 184.788L263.378 170.116L263.757 169.928L269.721 183.481L293.84 225.232L296.891 238.642L306.278 286.236Z" fill="#3F3D56"/>
<path d="M203.753 237.699L200.578 264.395L252.662 270.615L263.574 269.281L258.933 221.225L256.221 218.16L203.753 237.699Z" fill="#3F3D56"/>
<path d="M253.164 269.56L256.149 227.763L258.744 222.584L262.088 268.168L253.164 269.56Z" fill="url(#paint0_linear_1959_4876)"/>
<path d="M222.233 204.359C222.233 204.359 217.813 206.962 217.592 214.379H220.929C220.929 214.379 221.151 208.933 223.713 208.38L222.233 204.359Z" fill="#3F3D56"/>
<path d="M279.023 62.7408L283.821 68.3168L278.006 73.6911L273.802 69.7417L270.797 69.039C269.826 68.8134 268.945 68.3042 268.266 67.5764C267.587 66.8486 267.14 65.9352 266.983 64.953C266.908 64.4796 266.808 64.0105 266.683 63.5476C266.032 61.0816 268.639 46.4292 270.269 46.9367C273.997 48.1274 275.255 56.7939 276.37 57.4576C277.485 58.1212 279.023 62.7408 279.023 62.7408Z" fill="url(#paint1_linear_1959_4876)"/>
<path d="M275.112 64.6156C274.036 65.2662 270.432 67.0555 270.432 67.0555C269.828 67.2244 269.183 67.1737 268.613 66.9123C268.408 66.784 268.244 66.6016 268.137 66.3853C267.981 66.073 266.573 61.8308 266.573 61.8308L264.767 56.9185L261.195 47.1589L267.381 44.5563C267.645 44.4458 267.929 44.3902 268.215 44.3927C268.502 44.3951 268.785 44.4557 269.047 44.5708C269.309 44.6858 269.545 44.8528 269.74 45.0618C269.936 45.2707 270.087 45.5171 270.184 45.786L276.005 62.1691C276.125 62.6191 276.103 63.0949 275.943 63.5323C275.784 63.9697 275.494 64.3478 275.112 64.6156Z" fill="url(#paint2_linear_1959_4876)"/>
<path d="M274.317 63.9576C273.593 64.296 268.619 66.9116 268.619 66.9116C268.415 66.7833 268.25 66.6008 268.144 66.3845C267.987 66.0722 266.579 61.8301 266.579 61.8301L264.773 56.9177L263.242 50.3462L268.593 44.8613L274.903 62.6824C274.938 62.9287 274.901 63.1797 274.797 63.4057C274.693 63.6317 274.526 63.8233 274.317 63.9576Z" fill="url(#paint3_linear_1959_4876)"/>
<path d="M276.82 184.932L268.137 169.928L258.111 187.261C258.111 187.261 241.469 187.105 231.333 185.068L230.029 184.788C226.118 183.878 223.452 182.635 223.732 180.93C223.993 179.369 225.036 174.619 225.773 168.269C226.633 161.402 226.803 154.466 226.281 147.565C225.812 142.106 223.406 136.569 221.594 131.553C220.671 129.209 220.004 126.772 219.606 124.285C218.915 118.703 218.257 114.415 217.716 112.574C216.933 109.887 216.712 106.067 216.823 102.092C217.025 94.2127 218.504 85.6763 219.391 83.874C220.277 82.0718 228.178 78.4802 233.021 76.4437C235.192 75.5133 236.737 74.9082 236.737 74.9082H256.11L272.811 84.2449C272.811 84.2449 276.07 104.584 276.527 108.813C276.957 112.938 271.599 130.395 271.142 135.034C270.021 146.589 276.82 184.932 276.82 184.932Z" fill="#40A9FF"/>
<path d="M243.432 141.475L233.086 184.788H230.01C226.099 183.877 223.432 182.635 223.713 180.93C224.215 177.93 227.624 162.881 226.268 147.565C225.544 139.256 220.401 130.863 219.586 124.285L232.089 110.361L243.432 141.475Z" fill="url(#paint4_linear_1959_4876)"/>
<path d="M236.737 74.9082L260.008 112.691C260.008 112.691 259.004 84.7134 257.557 79.801C256.11 74.8887 236.737 74.9082 236.737 74.9082Z" fill="white"/>
<path d="M241.867 61.7973C241.867 61.7973 238.816 74.0683 236.743 74.9077C239.197 78.3598 242.909 80.7143 247.082 81.4661C249.455 81.9216 259.031 82.7674 257.583 79.8005C256.136 76.8336 256.136 74.9077 256.136 74.9077V70.0214C256.136 70.0214 263.959 72.4613 264.715 69.0194C265.471 65.5775 269.389 59.533 268.626 44.8676C267.863 30.2021 245.322 34.0474 242.199 36.4092C239.077 38.7711 236.776 52.942 241.867 61.7973Z" fill="url(#paint5_linear_1959_4876)"/>
<path d="M249.383 28.0818C251.19 27.7479 253.029 27.6213 254.865 27.7044C257.775 27.6752 260.664 28.1985 263.378 29.2464C266.045 30.398 268.424 32.4606 269.415 35.1933C269.856 36.6005 270.111 38.0596 270.171 39.5331C270.269 40.1831 270.24 40.8459 270.086 41.485C270.002 41.8007 269.83 42.0861 269.59 42.3084C269.35 42.5306 269.052 42.6805 268.73 42.7407C267.713 42.8448 266.775 41.7257 265.816 42.0315C265.197 42.2202 264.884 42.8969 264.369 43.2873C263.294 44.1006 261.762 43.4629 260.575 42.8513C259.389 42.2397 257.759 41.7192 256.86 42.6952C256.117 43.4564 256.071 44.9529 255.035 45.1936C254.755 45.2391 254.468 45.2258 254.194 45.1546C252.277 44.7837 250.028 44.3868 248.607 45.7141C247.884 46.5295 247.404 47.5299 247.219 48.603C246.897 49.7915 246.58 50.9778 246.267 52.162L244.377 50.1645C244.222 49.9763 244.026 49.8269 243.803 49.7286C243.55 49.6908 243.292 49.728 243.06 49.8356C242.828 49.9431 242.633 50.1164 242.499 50.3337C242.175 50.7999 241.955 51.3304 241.854 51.889C241.753 52.4477 241.774 53.0215 241.915 53.5714C242.056 54.1214 242.314 54.6346 242.671 55.0763C243.028 55.5179 243.477 55.8776 243.986 56.1309C244.258 56.2102 244.507 56.3555 244.709 56.5538C244.824 56.7274 244.896 56.926 244.918 57.1329C245.276 59.2215 244.527 61.3556 243.418 63.1578C243.08 63.842 242.503 64.3789 241.795 64.6673C241.065 64.8755 240.12 64.3615 240.179 63.6133L238.797 64.1078C238.147 62.1542 237.71 60.1364 237.493 58.0893C236.737 52.702 235.981 47.3147 235.681 41.8884C235.506 40.2214 235.625 38.5369 236.033 36.911C236.246 36.1011 236.645 35.3522 237.2 34.724C237.755 34.0959 238.449 33.606 239.227 33.2934C240.237 32.9616 240.935 32.916 241.711 32.2329C242.371 31.5714 243.077 30.9562 243.823 30.3915C245.51 29.2718 247.398 28.4875 249.383 28.0818Z" fill="#091240"/>
<path d="M304.068 114.552C301.167 114.552 276.527 108.813 276.527 108.813L274.278 93.9397L272.811 84.2451C272.811 84.2451 281.833 89.4503 283.73 91.4673C285.627 93.4843 288.736 92.7686 288.736 92.7686L275.823 75.6827L283.788 68.3175L286.507 65.793L297.973 79.3523C297.973 79.3523 305.547 89.8016 308.553 96.796C309.052 98.0012 309.359 99.2765 309.465 100.576C310.058 107.109 306.473 114.552 304.068 114.552Z" fill="#40A9FF"/>
<path d="M266.638 63.5484C266.638 63.5484 267.942 60.4319 268.626 60.2952C269.31 60.1586 269.63 63.3793 269.076 64.1535C268.522 64.9278 268.991 67.4588 269.213 67.6865C269.434 67.9142 266.227 66.3267 266.638 63.5484Z" fill="url(#paint6_linear_1959_4876)"/>
<path d="M231.333 185.069L232.063 187.262L221.548 191.341L220.036 191.934C220.036 191.934 201.667 154.925 200.663 150.26C199.659 145.595 207.344 103.915 219.371 83.8945C220.457 84.4854 221.508 85.1371 222.52 85.8465C226.731 88.7158 233.862 94.7082 235.59 103.264L221.575 131.567L216.777 141.268L225.753 168.27L231.333 185.069Z" fill="#40A9FF"/>
<path d="M230.596 187.834C230.596 187.834 238.295 194.932 238.855 196.488C239.416 198.043 238.855 202.155 238.855 202.155H237.408L237.076 206.598C237.076 206.598 236.424 209.715 234.846 209.604C233.407 209.631 231.978 209.85 230.596 210.255C230.596 210.255 225.16 209.813 223.713 208.368C222.266 206.924 221.483 200.151 221.594 198.264C221.705 196.377 221.594 190.82 221.594 190.82L230.596 187.834Z" fill="url(#paint7_linear_1959_4876)"/>
<path d="M238.855 202.155C238.855 202.155 241.6 201.934 243.086 208.154C244.572 214.374 244.272 216.612 244.272 216.612H240.263C240.263 216.612 239.305 206.599 237.154 205.551L237.408 202.148L238.855 202.155Z" fill="#3F3D56"/>
<path d="M258.933 221.218L256.566 238.492C256.415 239.599 255.841 240.605 254.964 241.3C254.087 241.995 252.975 242.325 251.86 242.22L203.753 237.666C203.165 237.616 202.593 237.447 202.074 237.168C201.554 236.89 201.097 236.508 200.73 236.047C200.364 235.586 200.096 235.054 199.943 234.485C199.79 233.917 199.756 233.323 199.841 232.74L202.11 216.969C202.264 215.892 202.819 214.912 203.665 214.226C204.511 213.539 205.585 213.197 206.673 213.267L254.904 216.312C255.5 216.348 256.081 216.507 256.612 216.778C257.143 217.049 257.612 217.427 257.991 217.888C258.369 218.348 258.648 218.881 258.81 219.454C258.972 220.027 259.014 220.628 258.933 221.218ZM298.423 300.283L295.32 292.847L305.098 286.926L309.243 296.62C309.243 296.62 322.991 297.063 329.223 303.062L331.896 308.176H298.533L298.423 300.283ZM207.318 292.281L212.344 285.839L219.958 290.778L216.751 297.551L221.685 306.992C221.685 306.992 225.329 306.842 229.371 310.245C233.412 313.648 232.05 314.539 232.05 314.539H212.057L200.578 297.551C200.578 297.551 204.711 292.541 207.318 292.281Z" fill="#3F3D56"/>
<path d="M238.81 71.584C238.81 71.584 233.178 71.584 232.845 74.9088L234.625 87.271L241.417 90.0492L240.081 96.9395L260.008 112.718L236.737 74.9348C237.6 73.9336 238.3 72.8028 238.81 71.584ZM259.617 75.9107L256.11 72.9113C256.006 74.4296 256.173 75.9543 256.606 77.4137C257.297 79.2355 260.569 107.135 260.008 112.691L264.03 92.7949L260.582 86.9391L261.918 82.7165L259.617 75.9107Z" fill="#40A9FF"/>
<path d="M251.99 81.9479L250.432 86.0599L253.438 89.2481L252.727 100.895L260.008 112.697L259.487 100.979L255.224 88.8057L256.084 85.2466L254.226 81.9023L251.99 81.9479Z" fill="#40A9FF"/>
<path d="M238.81 71.584C238.81 71.584 233.178 71.584 232.845 74.9088L234.625 87.2709L241.417 90.0492L240.081 96.9395L260.008 112.718L236.737 74.9348C237.6 73.9336 238.3 72.8028 238.81 71.584Z" fill="url(#paint8_linear_1959_4876)"/>
<path d="M259.617 75.9096L256.11 72.9102C256.006 74.4284 256.173 75.9531 256.606 77.4126C257.297 79.2344 260.569 107.134 260.008 112.69L264.03 92.7938L260.582 86.938L261.918 82.7153L259.617 75.9096Z" fill="url(#paint9_linear_1959_4876)"/>
<path d="M251.99 81.9479L250.432 86.0599L253.438 89.2481L252.727 100.895L260.008 112.697L259.487 100.979L255.224 88.8057L256.084 85.2466L254.226 81.9023L251.99 81.9479Z" fill="url(#paint10_linear_1959_4876)"/>
<path d="M261.905 115.809L267.987 125.217L268.137 169.929L276.82 184.933C276.82 184.933 268.346 147.352 271.142 135.035C273.939 122.718 272.811 120.721 272.811 120.721L261.905 115.809Z" fill="url(#paint11_linear_1959_4876)"/>
<path opacity="0.24" d="M204.437 147.566C206.243 154.58 223.713 190.118 223.713 190.118L221.548 191.341L220.036 191.933C220.036 191.933 201.667 154.925 200.663 150.26C199.659 145.595 207.344 103.915 219.371 83.8945C220.29 82.0597 228.197 78.4747 233.021 76.4316L233.432 80.0427L222.52 85.8204C222.52 85.8204 219.984 92.7953 216.803 102.086C211.073 118.821 203.264 143.057 204.437 147.566Z" fill="white"/>
<path d="M304.068 114.551C301.167 114.551 276.527 108.812 276.527 108.812L274.278 93.9386V93.6914L299.426 104.895C299.426 104.895 309.061 107.108 309.465 100.601C310.058 107.108 306.473 114.551 304.068 114.551Z" fill="url(#paint12_linear_1959_4876)"/>
<path d="M288.736 92.7948C288.736 92.7948 295.47 104.539 299.459 104.89C301.269 105.103 303.094 105.171 304.915 105.092L306.284 97.2842L283.788 68.3047L275.823 75.683L288.736 92.7948Z" fill="url(#paint13_linear_1959_4876)"/>
<path opacity="0.24" d="M306.278 286.236L302.966 288.156C302.966 288.156 290.183 229.097 288.625 225.694C287.067 222.291 262.075 180.39 262.075 180.39L263.378 170.116L263.757 169.928L269.721 183.481L293.84 225.232L296.891 238.642L306.278 286.236ZM258.933 221.218L256.567 238.492C256.415 239.6 255.841 240.606 254.964 241.3C254.087 241.995 252.975 242.325 251.86 242.22L203.753 237.666C203.082 237.602 202.435 237.383 201.863 237.027C201.29 236.672 200.808 236.189 200.454 235.616H202.599L246.124 239.52C246.124 239.52 252.31 240.106 253.757 235.87C255.204 231.635 257.114 217.067 257.114 217.067C257.771 217.524 258.289 218.153 258.61 218.886C258.931 219.619 259.043 220.426 258.933 221.218Z" fill="white"/>
<path opacity="0.24" d="M251.86 242.221L248.777 265.683L200.578 264.395L252.662 270.615L255.198 241.102L251.86 242.221Z" fill="white"/>
<path d="M501.269 277.902L375.31 276.113C375.31 276.113 370.903 274.278 369.801 270.615C368.7 266.952 368.7 236.905 369.801 231.16C370.903 225.415 380.062 216.605 380.062 216.605C380.062 216.605 388.868 194.405 391.059 184.789C393.249 175.172 407.147 173.435 407.147 173.435H470.853C471.401 175.992 472.033 178.64 472.77 181.393C473.663 184.743 474.725 188.244 475.918 191.92C478.05 198.387 480.709 205.388 484.001 213.02C484.04 213.105 484.079 213.196 484.112 213.281C486.533 218.889 488.706 224.346 490.631 229.651C491.335 231.598 492.004 233.524 492.638 235.428C494.294 240.36 495.713 245.147 496.895 249.788C498.493 255.932 499.699 262.171 500.506 268.468C500.906 271.712 501.16 274.857 501.269 277.902ZM430.972 77.3941C428.137 76.8801 425.21 76.802 422.465 75.9237C423.847 77.9797 425.232 80.0335 426.618 82.0852C427.843 84.0395 429.251 85.8738 430.822 87.5636C433.123 89.8994 436.155 91.6431 439.433 91.8709C441.773 92.0426 444.094 91.3476 445.952 89.9189C448.742 87.6742 447.138 86.3274 444.922 84.3234C441.009 80.7619 436.178 78.362 430.972 77.3941ZM401.195 61.4794C400.741 62.3484 400.232 63.1873 399.67 63.9909L402.14 63.4444C402.913 63.2972 403.67 63.0794 404.402 62.7937C405.454 62.3852 406.321 61.6079 406.84 60.6076C407.187 59.8877 407.257 59.0656 407.036 58.2978C406.671 57.1331 406.045 57.4715 405.126 57.9204C403.512 58.7224 402.152 59.9541 401.195 61.4794ZM93.1316 94.8964C91.7708 94.7478 90.4209 94.5131 89.09 94.1937L91.0456 97.1215C91.6285 98.0487 92.2963 98.92 93.0403 99.7241C94.1198 100.879 95.5801 101.607 97.1536 101.774C98.2705 101.856 99.3784 101.522 100.263 100.837C101.567 99.7696 100.824 99.132 99.774 98.1756C97.9095 96.4858 95.6087 95.3499 93.1316 94.8964ZM75.5052 151.541C75.0498 152.407 74.5404 153.244 73.9799 154.046L76.4504 153.5C77.2228 153.352 77.98 153.135 78.7124 152.849C79.7649 152.439 80.6331 151.662 81.1569 150.663C81.5018 149.942 81.5691 149.12 81.3459 148.353C80.9809 147.188 80.3551 147.527 79.4425 147.976C77.8234 148.776 76.4599 150.01 75.5052 151.541Z" fill="#40A9FF"/>
<path d="M484.138 213.293H395.707C394.998 213.292 394.299 213.127 393.664 212.812C393.03 212.497 392.477 212.04 392.048 211.476C391.62 210.913 391.328 210.258 391.194 209.563C391.061 208.868 391.091 208.152 391.28 207.47L396.495 188.836C397.371 185.696 399.253 182.928 401.853 180.957C404.454 178.985 407.629 177.918 410.895 177.918H471.942C472.216 179.057 472.515 180.215 472.828 181.392C473.721 184.743 474.784 188.244 475.977 191.92C478.108 198.387 480.768 205.388 484.06 213.02C484.067 213.118 484.106 213.209 484.138 213.293Z" fill="#3F3D56"/>
<path d="M500.506 268.468C499.394 269.162 498.109 269.53 496.797 269.529H387.806C385.963 269.529 384.194 268.802 382.885 267.506C381.577 266.211 380.833 264.452 380.818 262.612V242.442C380.817 241.526 380.997 240.618 381.348 239.771C381.699 238.924 382.213 238.155 382.862 237.506C383.511 236.858 384.282 236.343 385.13 235.993C385.979 235.642 386.888 235.461 387.806 235.461H492.651C494.307 240.393 495.726 245.179 496.908 249.821C498.5 255.955 499.702 262.183 500.506 268.468Z" fill="url(#paint14_linear_1959_4876)"/>
<path d="M490.644 229.663H434.955C426.344 219.116 395.707 213.293 395.707 213.293H484.138C486.559 218.901 488.727 224.358 490.644 229.663Z" fill="url(#paint15_linear_1959_4876)"/>
<path d="M401.834 242.24H392.917C389.072 242.24 385.955 245.351 385.955 249.189V258.09C385.955 261.928 389.072 265.039 392.917 265.039H401.834C405.679 265.039 408.796 261.928 408.796 258.09V249.189C408.796 245.351 405.679 242.24 401.834 242.24Z" fill="white"/>
<path d="M492.117 248.629H425.523C424.959 248.629 424.419 248.405 424.02 248.008C423.622 247.61 423.398 247.07 423.398 246.508C423.398 245.945 423.622 245.406 424.02 245.008C424.419 244.61 424.959 244.387 425.523 244.387H492.117C492.681 244.387 493.221 244.61 493.62 245.008C494.018 245.406 494.242 245.945 494.242 246.508C494.242 247.07 494.018 247.61 493.62 248.008C493.221 248.405 492.681 248.629 492.117 248.629Z" fill="#40A9FF"/>
<path d="M492.117 250.379H425.523C424.349 250.379 423.398 251.329 423.398 252.5V252.506C423.398 253.678 424.349 254.628 425.523 254.628H492.117C493.291 254.628 494.242 253.678 494.242 252.506V252.5C494.242 251.329 493.291 250.379 492.117 250.379Z" fill="#40A9FF"/>
<path d="M492.117 260.607H425.523C424.959 260.607 424.419 260.384 424.02 259.986C423.622 259.588 423.398 259.049 423.398 258.486C423.398 257.924 423.622 257.384 424.02 256.986C424.419 256.589 424.959 256.365 425.523 256.365H492.117C492.681 256.365 493.221 256.589 493.62 256.986C494.018 257.384 494.242 257.924 494.242 258.486C494.242 259.049 494.018 259.588 493.62 259.986C493.221 260.384 492.681 260.607 492.117 260.607Z" fill="#40A9FF"/>
<path d="M443.162 163.915L445.9 156.322C446.36 155.03 447.21 153.911 448.333 153.12C449.456 152.329 450.796 151.904 452.171 151.904H467.965L469.184 163.765L443.162 163.915Z" fill="white"/>
<path opacity="0.16" d="M461.695 151.904L467.203 163.922L469.158 163.772L467.939 151.904H461.695Z" fill="#222A72"/>
</g>
<defs>
<linearGradient id="paint0_linear_1959_4876" x1="233.934" y1="209.389" x2="280.427" y2="287.139" gradientUnits="userSpaceOnUse">
<stop stop-color="#68E1FD"/>
<stop offset="0.01" stop-color="#67DDF9"/>
<stop offset="0.12" stop-color="#5CB3CE"/>
<stop offset="0.24" stop-color="#538EA9"/>
<stop offset="0.37" stop-color="#4C718B"/>
<stop offset="0.5" stop-color="#465A73"/>
<stop offset="0.63" stop-color="#424A63"/>
<stop offset="0.79" stop-color="#404059"/>
<stop offset="0.99" stop-color="#3F3D56"/>
</linearGradient>
<linearGradient id="paint1_linear_1959_4876" x1="266.547" y1="60.3074" x2="283.788" y2="60.3074" gradientUnits="userSpaceOnUse">
<stop stop-color="#ECC4D7"/>
<stop offset="0.42" stop-color="#EFD4D1"/>
<stop offset="1" stop-color="#F2EAC9"/>
</linearGradient>
<linearGradient id="paint2_linear_1959_4876" x1="261.195" y1="55.7668" x2="276.077" y2="55.7668" gradientUnits="userSpaceOnUse">
<stop stop-color="#183866"/>
<stop offset="1" stop-color="#1A7FC1"/>
</linearGradient>
<linearGradient id="paint3_linear_1959_4876" x1="266.266" y1="51.4849" x2="275.872" y2="70.394" gradientUnits="userSpaceOnUse">
<stop stop-color="#183866"/>
<stop offset="1" stop-color="#1A7FC1"/>
</linearGradient>
<linearGradient id="paint4_linear_1959_4876" x1="263.163" y1="145.411" x2="184.114" y2="151.002" gradientUnits="userSpaceOnUse">
<stop offset="0.21" stop-color="#68E1FD" stop-opacity="0"/>
<stop offset="0.22" stop-color="#66DAF6" stop-opacity="0.04"/>
<stop offset="0.35" stop-color="#58A1BC" stop-opacity="0.39"/>
<stop offset="0.48" stop-color="#4D758F" stop-opacity="0.66"/>
<stop offset="0.62" stop-color="#45566F" stop-opacity="0.85"/>
<stop offset="0.78" stop-color="#40435C" stop-opacity="0.96"/>
<stop offset="0.99" stop-color="#3F3D56"/>
</linearGradient>
<linearGradient id="paint5_linear_1959_4876" x1="236.737" y1="58.0365" x2="268.711" y2="58.0365" gradientUnits="userSpaceOnUse">
<stop stop-color="#ECC4D7"/>
<stop offset="0.42" stop-color="#EFD4D1"/>
<stop offset="1" stop-color="#F2EAC9"/>
</linearGradient>
<linearGradient id="paint6_linear_1959_4876" x1="267.766" y1="62.605" x2="271.126" y2="69.2271" gradientUnits="userSpaceOnUse">
<stop stop-color="#ECC4D7"/>
<stop offset="0.42" stop-color="#EFD4D1"/>
<stop offset="1" stop-color="#F2EAC9"/>
</linearGradient>
<linearGradient id="paint7_linear_1959_4876" x1="221.588" y1="199.051" x2="239.103" y2="199.051" gradientUnits="userSpaceOnUse">
<stop stop-color="#ECC4D7"/>
<stop offset="0.42" stop-color="#EFD4D1"/>
<stop offset="1" stop-color="#F2EAC9"/>
</linearGradient>
<linearGradient id="paint8_linear_1959_4876" x1="261.103" y1="76.711" x2="227.942" y2="114.581" gradientUnits="userSpaceOnUse">
<stop stop-color="#68E1FD" stop-opacity="0"/>
<stop offset="0.99" stop-color="#3F3D56"/>
</linearGradient>
<linearGradient id="paint9_linear_1959_4876" x1="256.084" y1="92.8003" x2="264.017" y2="92.8003" gradientUnits="userSpaceOnUse">
<stop stop-color="#68E1FD" stop-opacity="0"/>
<stop offset="0.99" stop-color="#3F3D56"/>
</linearGradient>
<linearGradient id="paint10_linear_1959_4876" x1="247.871" y1="77.8488" x2="265.721" y2="119.579" gradientUnits="userSpaceOnUse">
<stop stop-color="#68E1FD" stop-opacity="0"/>
<stop offset="0.99" stop-color="#3F3D56"/>
</linearGradient>
<linearGradient id="paint11_linear_1959_4876" x1="276.794" y1="124.241" x2="250.147" y2="218.259" gradientUnits="userSpaceOnUse">
<stop stop-color="#68E1FD" stop-opacity="0"/>
<stop offset="0.02" stop-color="#66DAF6" stop-opacity="0.04"/>
<stop offset="0.18" stop-color="#58A1BC" stop-opacity="0.39"/>
<stop offset="0.35" stop-color="#4D758F" stop-opacity="0.66"/>
<stop offset="0.53" stop-color="#45566F" stop-opacity="0.85"/>
<stop offset="0.73" stop-color="#40435C" stop-opacity="0.96"/>
<stop offset="0.99" stop-color="#3F3D56"/>
</linearGradient>
<linearGradient id="paint12_linear_1959_4876" x1="296.839" y1="90.3146" x2="277.225" y2="130.026" gradientUnits="userSpaceOnUse">
<stop offset="0.21" stop-color="#68E1FD" stop-opacity="0"/>
<stop offset="0.22" stop-color="#66DAF6" stop-opacity="0.04"/>
<stop offset="0.35" stop-color="#58A1BC" stop-opacity="0.39"/>
<stop offset="0.48" stop-color="#4D758F" stop-opacity="0.66"/>
<stop offset="0.62" stop-color="#45566F" stop-opacity="0.85"/>
<stop offset="0.78" stop-color="#40435C" stop-opacity="0.96"/>
<stop offset="0.99" stop-color="#3F3D56"/>
</linearGradient>
<linearGradient id="paint13_linear_1959_4876" x1="297.158" y1="114.279" x2="275.951" y2="17.4599" gradientUnits="userSpaceOnUse">
<stop offset="0.21" stop-color="#68E1FD" stop-opacity="0"/>
<stop offset="0.22" stop-color="#66DAF6" stop-opacity="0.04"/>
<stop offset="0.35" stop-color="#58A1BC" stop-opacity="0.39"/>
<stop offset="0.48" stop-color="#4D758F" stop-opacity="0.66"/>
<stop offset="0.62" stop-color="#45566F" stop-opacity="0.85"/>
<stop offset="0.78" stop-color="#40435C" stop-opacity="0.96"/>
<stop offset="0.99" stop-color="#3F3D56"/>
</linearGradient>
<linearGradient id="paint14_linear_1959_4876" x1="311.571" y1="210.502" x2="598.103" y2="304.793" gradientUnits="userSpaceOnUse">
<stop stop-color="#68E1FD" stop-opacity="0"/>
<stop offset="0.27" stop-color="#58A0BB" stop-opacity="0.39"/>
<stop offset="0.56" stop-color="#4A6A84" stop-opacity="0.73"/>
<stop offset="0.8" stop-color="#424962" stop-opacity="0.93"/>
<stop offset="0.99" stop-color="#3F3D56"/>
</linearGradient>
<linearGradient id="paint15_linear_1959_4876" x1="366.881" y1="191.444" x2="564.892" y2="255.861" gradientUnits="userSpaceOnUse">
<stop stop-color="#68E1FD" stop-opacity="0"/>
<stop offset="0.27" stop-color="#58A0BB" stop-opacity="0.39"/>
<stop offset="0.56" stop-color="#4A6A84" stop-opacity="0.73"/>
<stop offset="0.8" stop-color="#424962" stop-opacity="0.93"/>
<stop offset="0.99" stop-color="#3F3D56"/>
</linearGradient>
<clipPath id="clip0_1959_4876">
<rect width="514" height="347" fill="white"/>
</clipPath>
</defs>
</svg>
