<svg width="435" height="367" viewBox="0 0 435 367" fill="none" xmlns="http://www.w3.org/2000/svg">
<g clip-path="url(#clip0_1959_4822)">
<path opacity="0.19" d="M92.0777 339.302C92.853 341.342 91.2531 343.604 89.2964 344.576C87.3396 345.547 85.0752 345.633 82.9585 346.18C79.6665 347.028 76.7683 348.958 73.5809 350.145C69.2059 351.774 64.4433 351.952 59.7729 352.112C45.6819 352.598 30.6433 352.837 18.669 345.399C18.2184 345.178 17.853 344.815 17.6291 344.367C17.5032 343.922 17.5494 343.445 17.7584 343.033C18.749 340.752 21.5918 340.058 24.0532 339.67C35.6459 337.863 47.5156 336.228 59.2561 335.816C65.3601 335.613 89.764 333.191 92.0777 339.302Z" fill="url(#paint0_linear_1959_4822)"/>
<path opacity="0.18" d="M334 340.223C328.665 341.305 323.638 343.524 318.66 345.756L298.693 354.589C309.83 360.576 323.349 358.105 336 357.933C337.107 357.933 338.301 357.933 339.181 358.621C340.412 359.586 340.522 361.412 341.292 362.789C342.738 365.395 346.214 365.918 349.186 366.115C376.1 367.866 403.121 367.006 429.868 363.545C431.148 363.379 432.489 363.182 433.523 362.414C436.6 360.121 434.434 354.829 430.951 353.194C427.468 351.558 423.376 351.964 419.678 350.907C415.98 349.85 412.411 345.94 414.14 342.492C398.893 342.791 383.645 342.627 368.397 342C356.884 341.508 345.488 337.888 334 340.223Z" fill="#1D2741"/>
<path opacity="0.18" d="M407.519 207.356C410.018 181.323 422.7 153.785 409.735 130.248C406.332 124.101 401.452 118.833 395.994 113.934C388.783 107.473 380.568 101.64 373.387 95.1303C360.681 83.6231 353.414 69.8108 343.624 57.1726C339.568 51.835 334.954 46.945 329.859 42.5858C327.832 40.8769 325.781 39.1947 323.706 37.5391C306.686 24.0711 287.53 12.5086 265.748 5.79606C234.858 -3.70105 198.129 -2.17045 172.052 15.1641C162.662 21.4033 155.056 29.3329 147.722 37.5391C141.802 44.1594 136.086 50.958 129.76 57.1542C124.105 62.7356 117.977 67.8499 110.821 71.95C100.631 77.7958 88.9025 81.2319 78.0912 86.1434C71.1556 89.2929 64.5582 93.1381 58.4007 97.6198C50.136 103.614 42.745 110.727 36.4397 118.753C22.7609 136.174 15.0324 157.166 15.5554 178.299C15.6354 181.606 15.9062 184.932 16.0108 188.251C16.2131 191.896 16.0004 195.552 15.377 199.15C14.2325 205.051 11.4204 210.595 8.51608 216.091C4.56568 223.584 0.424519 230.985 0.0307089 239.105C-0.658459 253.083 9.70366 265.058 21.198 275.292C23.1178 277.001 25.0746 278.667 27.0067 280.284C30.0833 282.866 33.2523 285.447 36.4458 287.998L37.0612 288.49C38.7718 289.849 40.4885 291.201 42.2299 292.541C46.5987 295.903 51.0722 299.18 55.6564 302.302C57.7075 303.692 59.7586 305.042 61.8096 306.353C66.6031 309.427 71.5195 312.236 76.5775 314.799C89.0748 321.143 102.421 325.778 116.783 327.622C156.121 332.539 195.25 315.064 234.926 317.375C260.961 318.887 285.241 328.808 310.47 334.586C335.698 340.365 364.994 341.287 385.337 327.007C404.086 313.871 410.233 291.176 410.282 270.19C410.331 249.205 405.526 228.274 407.519 207.356Z" fill="#69C0FF"/>
<path d="M378.968 37.5391H53.4597C51.2286 37.5358 49.0188 37.9716 46.9563 38.8216C44.8939 39.6715 43.0192 40.9189 41.4393 42.4926C39.8594 44.0663 38.6053 45.9355 37.7485 47.9934C36.8917 50.0512 36.4491 52.2576 36.4459 54.4863V288.496H395.964V54.5109C395.964 50.0097 394.174 45.6929 390.988 42.51C387.801 39.3272 383.48 37.5391 378.974 37.5391H378.968Z" fill="#69C0FF"/>
<path opacity="0.47" d="M101.591 250.692C100.975 257.104 95.2159 261.812 89.2841 263.828C86.2075 264.873 82.9401 265.457 80.3003 267.363C77.6606 269.269 75.9315 273.123 77.5929 275.969C79.6128 275.96 81.5887 276.558 83.2634 277.686C84.9381 278.814 86.2341 280.42 86.9828 282.294C83.1862 288.066 76.4607 291.219 69.7536 292.129C63.0465 293.039 56.2164 291.969 49.5708 290.863C47.2387 290.482 44.7528 290.015 43.073 288.306C41.3931 286.597 40.9316 284.114 40.5132 281.759C40.4578 281.427 40.3963 281.095 40.3348 280.757H36.2982V57.1543H58.3331V163.497C58.3331 172.171 57.9393 180.918 58.0747 189.561C58.21 197.785 63.6865 201.953 68.9044 207.934C70.5105 209.778 72.178 211.733 72.6518 214.161C73.1625 216.736 72.2395 219.466 72.9225 221.992C74.104 226.381 79.6358 228.041 83.8815 226.799C88.1273 225.557 91.5301 222.361 95.1913 219.816C101.518 215.432 108.945 212.901 116.635 212.507C114.057 223.43 101.375 230.334 101.08 241.589C100.988 244.638 101.886 247.65 101.591 250.692Z" fill="url(#paint1_linear_1959_4822)"/>
<path d="M20.7858 260.331C15.2478 251.387 11.3712 241.337 10.2698 230.881C9.59294 224.507 9.88215 217.782 7.00241 212.053C5.2918 208.647 2.50436 205.721 1.6429 202.002C0.0430504 195.056 5.62408 188.707 10.7498 183.746C11.0573 183.378 11.4692 183.112 11.9312 182.984C12.7311 182.836 13.451 183.5 13.9372 184.158C16.8723 188.11 17.1061 193.378 17.8568 198.216C18.6629 203.472 20.3858 208.906 24.3916 212.415C28.3974 215.925 34.5691 217.468 36.5443 222.423C38.298 226.836 35.7813 232.043 37.3627 236.524C38.9441 241.005 44.3528 243.691 45.1651 248.412C45.7065 251.547 44.0205 254.658 44.0698 257.836C44.1067 260.258 45.1466 262.538 45.7373 264.892C47.0049 269.945 45.7373 284.741 38.0519 280.413C31.0925 276.51 24.8715 266.927 20.7858 260.331Z" fill="#69C0FF"/>
<path d="M20.7858 260.331C15.2478 251.387 11.3712 241.337 10.2698 230.881C9.59294 224.507 9.88215 217.782 7.00241 212.053C5.2918 208.647 2.50436 205.721 1.6429 202.002C0.0430504 195.056 5.62408 188.707 10.7498 183.746C11.0573 183.378 11.4692 183.112 11.9312 182.984C12.7311 182.836 13.451 183.5 13.9372 184.158C16.8723 188.11 17.1061 193.378 17.8568 198.216C18.6629 203.472 20.3858 208.906 24.3916 212.415C28.3974 215.925 34.5691 217.468 36.5443 222.423C38.298 226.836 35.7813 232.043 37.3627 236.524C38.9441 241.005 44.3528 243.691 45.1651 248.412C45.7065 251.547 44.0205 254.658 44.0698 257.836C44.1067 260.258 45.1466 262.538 45.7373 264.892C47.0049 269.945 45.7373 284.741 38.0519 280.413C31.0925 276.51 24.8715 266.927 20.7858 260.331Z" fill="url(#paint2_linear_1959_4822)"/>
<path d="M34.7537 250.17C32.7416 239.856 32.6739 229.074 35.369 218.907C36.9997 212.704 39.6763 206.52 38.981 200.146C38.5872 196.353 37.012 192.628 37.5288 188.854C38.4949 181.791 45.9588 177.789 52.5059 174.986C52.9268 174.756 53.4058 174.653 53.8843 174.691C54.6903 174.839 55.1149 175.712 55.3426 176.499C56.6902 181.232 55.0534 186.223 54.0319 191.036C52.9305 196.237 52.6167 201.929 55.1149 206.625C57.6131 211.321 62.8496 214.948 62.9419 220.277C63.0219 225.029 58.8253 229.012 58.7207 233.758C58.6161 238.503 62.7204 242.929 61.7974 247.638C61.1821 250.76 58.5115 253.072 57.4347 256.059C56.6102 258.34 56.7763 260.841 56.4994 263.251C55.8841 268.427 49.497 281.833 43.8113 275.053C38.6918 268.931 36.2305 257.774 34.7537 250.17Z" fill="#69C0FF"/>
<path d="M34.7537 250.17C32.7416 239.856 32.6739 229.074 35.369 218.907C36.9997 212.704 39.6763 206.52 38.981 200.146C38.5872 196.353 37.012 192.628 37.5288 188.854C38.4949 181.791 45.9588 177.789 52.5059 174.986C52.9267 174.756 53.4058 174.653 53.8843 174.691C54.6903 174.839 55.1149 175.712 55.3426 176.499C56.6902 181.232 55.0534 186.223 54.0319 191.036C52.9305 196.237 52.6167 201.929 55.1149 206.625C57.6131 211.321 62.8496 214.948 62.9419 220.277C63.0219 225.029 58.8253 229.012 58.7207 233.758C58.6161 238.503 62.7204 242.929 61.7974 247.638C61.1821 250.76 58.5115 253.072 57.4347 256.059C56.6102 258.34 56.7763 260.841 56.4994 263.251C55.8841 268.427 49.497 281.833 43.8113 275.053C38.6918 268.931 36.2305 257.774 34.7537 250.17Z" fill="url(#paint3_linear_1959_4822)"/>
<path d="M48.9432 251.885C54.235 242.8 61.2928 234.674 70.0059 228.76C75.3223 225.164 81.3956 222.257 85.0999 217.019C87.3027 213.909 88.5826 210.073 91.4562 207.572C96.8403 202.894 105.08 204.818 111.873 207.006C112.342 207.106 112.77 207.343 113.103 207.688C113.614 208.303 113.362 209.268 113.011 210.012C110.907 214.456 106.378 217.13 102.44 220.081C98.1756 223.265 94.1883 227.34 92.9699 232.516C91.7516 237.692 93.296 243.87 89.844 247.939C86.7674 251.566 80.9895 251.793 77.7775 255.315C74.5655 258.837 74.7377 264.849 70.9473 267.787C68.4306 269.736 64.8925 269.718 62.1112 271.254C59.9883 272.428 58.4623 274.414 56.6594 276.043C52.7951 279.541 39.141 285.411 39.3379 276.571C39.5041 268.611 45.0359 258.585 48.9432 251.885Z" fill="#69C0FF"/>
<path d="M48.9432 251.885C54.235 242.8 61.2928 234.674 70.0059 228.76C75.3223 225.164 81.3956 222.257 85.0999 217.019C87.3027 213.909 88.5826 210.073 91.4562 207.572C96.8403 202.894 105.08 204.818 111.873 207.006C112.342 207.106 112.771 207.343 113.103 207.688C113.614 208.303 113.362 209.268 113.011 210.012C110.907 214.456 106.378 217.13 102.44 220.081C98.1756 223.265 94.1883 227.34 92.9699 232.516C91.7516 237.692 93.296 243.869 89.8441 247.939C86.7674 251.566 80.9895 251.793 77.7775 255.315C74.5655 258.837 74.7377 264.849 70.9473 267.787C68.4306 269.736 64.8925 269.718 62.1112 271.254C59.9883 272.428 58.4623 274.414 56.6594 276.043C52.7951 279.54 39.141 285.411 39.3379 276.572C39.5041 268.611 45.0359 258.585 48.9432 251.885Z" fill="url(#paint4_linear_1959_4822)"/>
<path d="M81.974 283.844L81.1495 288.497L80.4418 292.548L78.7558 302.31L78.0851 306.361L76.3868 316.128L75.6792 320.173L71.458 344.441H27.5667L23.3086 320.173L22.601 316.128L20.915 306.361L20.2012 302.31L18.4537 292.548L17.7584 288.497L16.9461 283.85C16.763 282.808 16.7872 281.74 17.0175 280.707C17.2478 279.674 17.6796 278.697 18.2882 277.831C18.8968 276.965 19.6703 276.227 20.5645 275.66C21.4586 275.093 22.4559 274.707 23.4994 274.525C23.9606 274.444 24.4279 274.403 24.8962 274.402H74.024C75.2007 274.401 76.3636 274.657 77.4306 275.152C78.4976 275.648 79.4428 276.372 80.1997 277.272C80.9565 278.172 81.5065 279.227 81.8109 280.363C82.1153 281.498 82.1668 282.687 81.9617 283.844H81.974Z" fill="#69C0FF"/>
<path d="M81.974 283.844L81.1495 288.497L80.4418 292.548L78.7558 302.31L78.0851 306.361L76.3868 316.128L75.6792 320.173L71.458 344.441H27.5667L23.3086 320.173L22.601 316.128L20.915 306.361L20.2012 302.31L18.4537 292.548L17.7584 288.497L16.9461 283.85C16.763 282.808 16.7872 281.74 17.0175 280.707C17.2478 279.674 17.6796 278.697 18.2882 277.831C18.8968 276.965 19.6703 276.227 20.5645 275.66C21.4586 275.093 22.4559 274.707 23.4994 274.525C23.9606 274.444 24.4279 274.403 24.8962 274.402H74.024C75.2007 274.401 76.3636 274.657 77.4306 275.152C78.4976 275.648 79.4428 276.372 80.1997 277.272C80.9565 278.172 81.5065 279.227 81.8109 280.363C82.1153 281.498 82.1668 282.687 81.9617 283.844H81.974Z" fill="url(#paint5_linear_1959_4822)"/>
<path d="M395.964 54.5109V57.1541H36.4459V54.5109C36.4459 50.0097 38.2358 45.6928 41.4219 42.51C44.608 39.3272 48.9292 37.5391 53.4351 37.5391H378.944C381.175 37.5383 383.384 37.9764 385.446 38.8286C387.507 39.6808 389.38 40.9302 390.959 42.5057C392.537 44.0811 393.789 45.9516 394.643 48.0104C395.498 50.0692 395.938 52.276 395.939 54.5048L395.964 54.5109Z" fill="url(#paint6_linear_1959_4822)"/>
<path d="M54.6165 50.4116C56.7133 50.4116 58.4131 48.7135 58.4131 46.6189C58.4131 44.5242 56.7133 42.8262 54.6165 42.8262C52.5197 42.8262 50.8199 44.5242 50.8199 46.6189C50.8199 48.7135 52.5197 50.4116 54.6165 50.4116Z" fill="url(#paint7_linear_1959_4822)"/>
<path d="M67.36 50.4116C69.4568 50.4116 71.1566 48.7135 71.1566 46.6189C71.1566 44.5242 69.4568 42.8262 67.36 42.8262C65.2632 42.8262 63.5634 44.5242 63.5634 46.6189C63.5634 48.7135 65.2632 50.4116 67.36 50.4116Z" fill="url(#paint8_linear_1959_4822)"/>
<path d="M80.0972 50.4116C82.194 50.4116 83.8938 48.7135 83.8938 46.6189C83.8938 44.5242 82.194 42.8262 80.0972 42.8262C78.0004 42.8262 76.3007 44.5242 76.3007 46.6189C76.3007 48.7135 78.0004 50.4116 80.0972 50.4116Z" fill="url(#paint9_linear_1959_4822)"/>
<path d="M256.709 139.555V209.766C256.705 212.146 255.757 214.428 254.072 216.11C252.386 217.793 250.101 218.739 247.719 218.74H177.442C175.059 218.739 172.775 217.793 171.089 216.11C169.404 214.428 168.455 212.146 168.452 209.766V139.555C168.452 137.174 169.399 134.892 171.084 133.209C172.768 131.526 175.053 130.58 177.436 130.58H247.719C250.097 130.578 252.379 131.519 254.064 133.196C255.75 134.872 256.701 137.148 256.709 139.524V139.555Z" fill="url(#paint10_linear_1959_4822)"/>
<path d="M219.764 166.288C219.8 167.585 219.485 168.867 218.851 169.999C218.218 171.13 217.289 172.07 216.165 172.718C215.879 172.883 215.643 173.12 215.481 173.407C215.319 173.693 215.236 174.018 215.242 174.347V189.714C215.242 190.282 215.016 190.826 214.615 191.227C214.213 191.628 213.668 191.854 213.1 191.854H212.054C211.486 191.854 210.942 191.628 210.54 191.227C210.139 190.826 209.913 190.282 209.913 189.714V174.347C209.916 174.018 209.832 173.693 209.67 173.406C209.508 173.119 209.274 172.88 208.99 172.712C207.905 172.087 207.001 171.189 206.371 170.107C205.74 169.025 205.403 167.798 205.393 166.546C205.384 165.294 205.702 164.062 206.317 162.971C206.932 161.88 207.821 160.969 208.897 160.327C209.973 159.685 211.198 159.336 212.451 159.314C213.704 159.291 214.941 159.596 216.04 160.199C217.138 160.801 218.06 161.68 218.713 162.749C219.366 163.817 219.729 165.037 219.764 166.288ZM81.1679 288.497L80.4603 292.547H18.4722L17.7645 288.497H81.1679ZM78.7558 302.309L78.0544 306.36H20.8965L20.1828 302.309H78.7558ZM76.3561 316.127L75.6484 320.172H23.3086L22.601 316.127H76.3561Z" fill="#69C0FF"/>
<path opacity="0.18" d="M304.101 188.031C301.215 183.992 296.853 181.183 292.207 179.425C291.149 179.025 289.955 178.681 288.921 179.13C288.195 179.53 287.586 180.113 287.155 180.82C284.915 183.894 282.583 187.213 282.368 191.012C282.048 196.79 286.632 202.943 283.691 207.928C282.872 209.318 281.568 210.35 280.614 211.653C278.817 214.112 278.405 217.333 278.645 220.37C278.934 224.015 279.402 228.89 275.956 230.131C274.922 230.434 273.824 230.449 272.781 230.174C269.76 229.56 266.966 228.115 264.007 227.255C261.047 226.394 257.632 226.191 255.06 227.869C254.832 231.152 257.656 233.887 260.628 235.307C263.6 236.727 266.948 237.372 269.674 239.223C273.796 242.013 275.827 247.214 275.698 252.211C275.569 257.209 273.612 261.942 271.114 266.251C269.951 268.255 268.652 270.253 268.172 272.521C267.231 277.045 269.766 281.489 272.197 285.43C272.91 286.579 273.692 287.796 274.935 288.337C275.987 288.694 277.112 288.785 278.208 288.601L321.367 284.913C322.598 284.809 324.032 284.563 324.561 283.45C324.795 282.767 324.795 282.025 324.561 281.342C323.152 275.306 318.715 270.339 317.14 264.339C316.414 261.542 316.334 258.623 316.254 255.734C315.934 243.821 315.534 231.791 312.993 220.081C311.719 214.247 308.581 208.795 307.338 203.109C306.181 197.804 307.769 193.157 304.101 188.031Z" fill="#1D2741"/>
<path d="M236.372 130.581H228.736V120.333C228.725 116.054 227.013 111.954 223.977 108.935C220.94 105.917 216.827 104.227 212.544 104.238C208.26 104.248 204.155 105.958 201.134 108.992C198.112 112.025 196.421 116.134 196.431 120.413V130.581H188.789V120.131C188.947 113.921 191.533 108.02 195.992 103.691C200.451 99.3621 206.429 96.9484 212.647 96.9669C218.864 96.9854 224.828 99.4345 229.261 103.79C233.694 108.146 236.244 114.062 236.366 120.272L236.372 130.581Z" fill="url(#paint11_linear_1959_4822)"/>
<path d="M395.908 335.614L402.351 341.761L393.078 351.018L381.43 352.02C381.087 351.035 381.113 349.959 381.505 348.993C381.897 348.026 382.626 347.234 383.559 346.765C385.7 345.608 388.033 344.846 390.444 344.515L390.192 339.757L395.908 335.614ZM324.303 335.141L325.25 342.898L303.431 352.66C303.431 352.66 300.705 348.449 303.498 344.791C306.292 341.134 313.996 338.565 313.996 338.565L315.356 335.19L324.303 335.141Z" fill="#3F3D56"/>
<path d="M329.859 215.488C329.859 215.488 321.958 221.322 321.127 230.376C320.297 239.431 319.897 242.609 319.897 242.609L306.052 241.49L305.867 249.137C305.867 249.137 324.235 255.843 327.053 254.7C329.871 253.557 333.397 248.51 333.397 248.51L329.859 215.488Z" fill="#69C0FF"/>
<path d="M329.859 215.488C329.859 215.488 321.958 221.322 321.127 230.376C320.297 239.431 319.897 242.609 319.897 242.609L306.052 241.49L305.867 249.137C305.867 249.137 324.235 255.843 327.053 254.7C329.871 253.557 333.397 248.51 333.397 248.51L329.859 215.488Z" fill="url(#paint12_linear_1959_4822)"/>
<path d="M335.175 263.749C335.175 263.749 306.255 287.587 306.021 295.713C305.787 303.839 313.128 335.613 313.128 335.613L324.339 335.552L324.666 302.149C324.666 302.149 348.319 293.9 350.891 288.915C353.463 283.929 358.915 259.612 335.175 263.749Z" fill="#69C0FF"/>
<path d="M335.175 263.749C335.175 263.749 306.255 287.587 306.021 295.713C305.787 303.839 313.128 335.613 313.128 335.613L324.339 335.552L324.666 302.149C324.666 302.149 348.319 293.9 350.891 288.915C353.463 283.929 358.915 259.612 335.175 263.749Z" fill="url(#paint13_linear_1959_4822)"/>
<path d="M335.175 263.749C335.175 263.749 336.941 300.102 348.319 311.855C359.696 323.608 388.813 341.244 388.813 341.244L397.077 336.123L369.123 306.974C369.123 306.974 373.166 274.254 368.385 268.519C363.603 262.784 335.175 263.749 335.175 263.749Z" fill="#69C0FF"/>
<path d="M335.175 263.749C335.175 263.749 336.941 300.102 348.319 311.855C359.696 323.608 388.813 341.244 388.813 341.244L397.077 336.123L369.123 306.974C369.123 306.974 373.166 274.254 368.385 268.519C363.603 262.784 335.175 263.749 335.175 263.749Z" fill="url(#paint14_linear_1959_4822)"/>
<path d="M335.175 263.75L325.293 221.981C325.293 221.981 330.831 206.054 352.78 211.181C374.729 216.307 368.366 268.52 368.366 268.52C368.366 268.52 343.728 276.683 335.175 263.75Z" fill="#69C0FF"/>
<path d="M335.175 263.75L325.293 221.981C325.293 221.981 330.831 206.054 352.78 211.181C374.729 216.307 368.366 268.52 368.366 268.52C368.366 268.52 343.728 276.683 335.175 263.75Z" fill="url(#paint15_linear_1959_4822)"/>
<path d="M352.035 217.591C352.035 217.591 350.719 210.638 357.783 212.495C364.846 214.351 375.842 238.312 375.436 241.644C375.03 244.975 340.664 246.346 340.664 246.346L339.846 238.355L357.912 235.337C357.912 235.337 351.278 223.99 352.035 217.591Z" fill="#69C0FF"/>
<path d="M352.035 217.591C352.035 217.591 350.719 210.638 357.783 212.495C364.846 214.351 375.842 238.312 375.436 241.644C375.03 244.976 340.664 246.346 340.664 246.346L339.846 238.355L357.912 235.337C357.912 235.337 351.278 223.99 352.035 217.591Z" fill="url(#paint16_linear_1959_4822)"/>
<path d="M348.663 202.764C347.816 204.514 346.375 205.906 344.596 206.692C344.297 206.795 344.007 206.92 343.728 207.067C343.603 207.146 343.49 207.241 343.39 207.35C342.775 208.039 343.205 209.059 343.39 209.944C343.735 211.96 342.565 214.026 340.879 215.181C339.932 215.788 338.893 216.239 337.803 216.515C336.271 216.915 334.621 217.007 333.459 216.46C331.613 215.593 331.797 212.772 331.391 211.044C330.05 205.438 328.874 199.691 329.483 193.894C329.81 190.821 330.671 187.686 332.523 185.19C334.375 182.695 337.323 180.887 340.436 180.943C343.55 180.998 346.503 182.959 348.725 185.246C349.501 186.009 350.157 186.885 350.669 187.846C352.109 190.729 351.346 194.177 350.546 197.3C350.139 199.19 349.507 201.024 348.663 202.764Z" fill="url(#paint17_linear_1959_4822)"/>
<path d="M351.137 189.167C351.137 189.167 341.907 189.167 336.326 192.413C331.348 195.296 329.976 201.455 329.557 201.351C328.616 201.135 325.545 195.204 326.838 193.894C328.13 192.585 327.108 192.579 327.108 192.579C327.108 192.579 325.625 190.12 326.37 185.706C326.98 182.482 327.815 179.305 328.868 176.197C328.868 176.197 329.256 174.734 334.843 176.197C340.43 177.66 349.851 182.129 350.374 183.942C350.897 185.756 350.466 186.586 350.466 186.586C350.466 186.586 351.998 187.71 351.137 189.167Z" fill="#69C0FF"/>
<path d="M351.137 189.167C351.137 189.167 341.907 189.167 336.326 192.413C331.348 195.296 329.976 201.455 329.557 201.351C328.616 201.135 325.545 195.204 326.838 193.894C328.13 192.585 327.108 192.579 327.108 192.579C327.108 192.579 325.625 190.12 326.37 185.706C326.98 182.482 327.815 179.305 328.868 176.197C328.868 176.197 329.256 174.734 334.843 176.197C340.43 177.66 349.851 182.129 350.374 183.942C350.897 185.756 350.466 186.586 350.466 186.586C350.466 186.586 351.998 187.71 351.137 189.167Z" fill="url(#paint18_linear_1959_4822)"/>
<path d="M336.326 192.389C339.564 193.171 342.855 193.721 346.171 194.036C349.149 194.227 351.297 193.421 351.315 193.28C351.352 192.966 350.349 198.271 350.349 198.271L348.091 199.064C347.22 199.372 346.29 199.481 345.371 199.384L331.286 197.921C331.286 197.921 333.686 193.618 336.326 192.389Z" fill="#69C0FF"/>
<path d="M336.326 192.389C339.564 193.171 342.855 193.721 346.171 194.036C349.149 194.227 351.297 193.421 351.315 193.28C351.352 192.966 350.349 198.271 350.349 198.271L348.091 199.064C347.22 199.372 346.29 199.481 345.371 199.384L331.286 197.921C331.286 197.921 333.686 193.618 336.326 192.389Z" fill="url(#paint19_linear_1959_4822)"/>
<path d="M342.116 195.118C342.521 195.007 342.95 195.02 343.347 195.155C343.618 195.204 343.864 195.345 344.042 195.554C344.145 195.713 344.216 195.891 344.251 196.077C344.289 196.182 344.289 196.297 344.251 196.402C344.199 196.463 344.132 196.508 344.056 196.533C343.98 196.558 343.899 196.562 343.821 196.544C343.087 196.549 342.359 196.409 341.679 196.132C341.126 195.843 341.649 195.284 342.116 195.118ZM348.614 195.419C348.73 195.315 348.865 195.236 349.012 195.187C349.159 195.137 349.315 195.118 349.469 195.13C349.57 195.124 349.67 195.139 349.765 195.174C349.859 195.209 349.945 195.263 350.017 195.333C350.121 195.468 350.202 195.62 350.257 195.782C350.306 195.881 350.327 195.991 350.319 196.101C350.304 196.164 350.272 196.221 350.224 196.265C350.177 196.309 350.118 196.337 350.054 196.347C349.564 196.541 349.029 196.595 348.51 196.501C348.066 196.372 348.319 195.695 348.614 195.419Z" fill="white"/>
<path d="M340.849 215.181C339.902 215.788 338.863 216.238 337.772 216.515C336.857 215.479 336.27 214.196 336.086 212.826C335.907 211.877 335.798 210.915 335.76 209.95C335.647 209.11 335.853 208.259 336.338 207.565C336.659 207.267 337.044 207.048 337.464 206.924C337.883 206.801 338.326 206.776 338.756 206.852C339.624 206.95 340.461 207.251 341.329 207.343C342.067 207.423 342.953 207.085 343.728 207.042C343.603 207.121 343.49 207.216 343.39 207.325C342.775 208.013 343.205 209.034 343.39 209.919C343.704 211.96 342.535 214.025 340.849 215.181Z" fill="url(#paint20_linear_1959_4822)"/>
<path d="M301.271 237.642C300.914 237.36 300.49 237.175 300.04 237.107C299.816 237.08 299.589 237.135 299.404 237.263C299.218 237.391 299.085 237.583 299.031 237.802C299.03 238.115 299.137 238.418 299.333 238.662L300.163 239.959C300.268 240.094 300.33 240.257 300.342 240.427C300.342 240.857 299.726 240.943 299.289 240.888C296.582 240.543 293.881 239.707 291.179 240.064C290.971 240.07 290.772 240.151 290.619 240.291C290.541 240.408 290.505 240.548 290.518 240.688C290.53 240.827 290.59 240.959 290.687 241.06C290.891 241.256 291.14 241.398 291.413 241.472C292.926 242.025 294.479 242.461 296.059 242.775C295.881 243.217 295.296 243.297 294.828 243.316C293.521 243.365 292.219 243.512 290.933 243.758C290.201 243.894 289.303 244.262 289.297 244.988C289.317 245.23 289.413 245.46 289.571 245.645C289.729 245.83 289.94 245.961 290.176 246.02C290.653 246.132 291.146 246.149 291.629 246.07C293.322 245.928 295.027 245.971 296.711 246.199C294.89 246.407 293.16 247.109 291.709 248.227C291.576 248.32 291.466 248.442 291.389 248.584C291.222 248.94 291.536 249.371 291.912 249.493C292.301 249.573 292.704 249.55 293.081 249.426C294.763 249.036 296.48 248.813 298.206 248.762C297.166 249.241 296.197 249.862 295.327 250.606C295.063 250.809 294.852 251.073 294.711 251.374C294.64 251.527 294.617 251.698 294.645 251.864C294.674 252.03 294.753 252.183 294.871 252.303C295.028 252.399 295.206 252.458 295.39 252.473C295.574 252.488 295.759 252.459 295.93 252.389C297.979 251.835 299.788 250.508 301.886 250.2C302.981 250.034 304.249 250.102 305.012 249.297C305.338 248.898 305.566 248.429 305.677 247.926C306.132 246.346 307.073 243.008 306.12 241.472C305.744 240.857 304.834 240.353 304.274 239.898C303.313 239.094 302.311 238.341 301.271 237.642ZM335.563 235.122C335.207 234.839 334.782 234.655 334.332 234.587C334.108 234.559 333.882 234.615 333.696 234.743C333.51 234.871 333.377 235.063 333.323 235.282C333.323 235.594 333.429 235.898 333.625 236.142L334.455 237.439C334.56 237.574 334.622 237.736 334.634 237.906C334.603 238.337 334.019 238.423 333.582 238.367C330.874 238.023 328.173 237.181 325.472 237.544C325.264 237.547 325.065 237.626 324.912 237.765C324.832 237.882 324.795 238.023 324.807 238.164C324.82 238.305 324.88 238.438 324.979 238.54C325.183 238.736 325.433 238.877 325.705 238.951C327.218 239.505 328.771 239.941 330.351 240.255C330.173 240.697 329.588 240.771 329.121 240.789C327.813 240.843 326.511 240.993 325.226 241.238C324.493 241.373 323.595 241.736 323.589 242.467C323.61 242.71 323.706 242.939 323.863 243.124C324.021 243.31 324.233 243.441 324.469 243.5C324.945 243.612 325.438 243.628 325.921 243.549C327.615 243.408 329.319 243.451 331.003 243.678C329.184 243.887 327.456 244.589 326.007 245.707C325.873 245.797 325.761 245.917 325.681 246.057C325.655 246.151 325.647 246.249 325.659 246.345C325.671 246.442 325.702 246.535 325.75 246.62C325.798 246.704 325.862 246.778 325.939 246.838C326.016 246.898 326.104 246.941 326.198 246.967C326.586 247.051 326.99 247.03 327.367 246.906C329.049 246.512 330.766 246.29 332.493 246.242C331.452 246.721 330.483 247.341 329.613 248.086C329.349 248.289 329.138 248.553 328.997 248.854C328.928 249.007 328.906 249.177 328.934 249.343C328.963 249.508 329.041 249.662 329.157 249.782C329.316 249.879 329.494 249.937 329.679 249.952C329.864 249.967 330.05 249.939 330.222 249.868C332.265 249.315 334.074 247.987 336.172 247.68C337.267 247.514 338.535 247.582 339.298 246.776C339.624 246.378 339.852 245.908 339.963 245.406C340.424 243.826 341.359 240.488 340.406 238.945C340.03 238.331 339.12 237.833 338.56 237.378C337.601 236.574 336.601 235.821 335.563 235.122Z" fill="#69C0FF"/>
<path d="M301.271 237.643C300.914 237.361 300.49 237.177 300.04 237.108C299.816 237.081 299.589 237.136 299.404 237.264C299.218 237.392 299.085 237.584 299.031 237.803C299.03 238.116 299.137 238.42 299.333 238.664L300.163 239.961C300.268 240.095 300.33 240.258 300.342 240.428C300.342 240.858 299.726 240.944 299.289 240.889C296.582 240.545 293.881 239.709 291.179 240.065C290.971 240.071 290.772 240.152 290.619 240.293C290.541 240.409 290.505 240.549 290.518 240.689C290.53 240.829 290.59 240.96 290.687 241.061C290.891 241.257 291.14 241.399 291.413 241.473C292.926 242.027 294.479 242.462 296.059 242.776C295.881 243.219 295.296 243.299 294.828 243.317C293.521 243.366 292.219 243.514 290.933 243.76C290.201 243.895 289.303 244.264 289.297 244.989C289.317 245.231 289.413 245.461 289.571 245.646C289.729 245.831 289.94 245.962 290.176 246.022C290.653 246.133 291.146 246.15 291.629 246.071C293.322 245.929 295.027 245.972 296.711 246.2C294.89 246.409 293.16 247.11 291.709 248.228C291.576 248.321 291.466 248.443 291.389 248.585C291.222 248.941 291.536 249.372 291.912 249.495C292.301 249.574 292.704 249.551 293.081 249.427C294.763 249.037 296.48 248.815 298.206 248.763C297.166 249.242 296.197 249.863 295.327 250.607C295.063 250.81 294.852 251.074 294.711 251.376C294.64 251.528 294.617 251.699 294.645 251.865C294.674 252.031 294.753 252.184 294.871 252.304C295.028 252.401 295.206 252.459 295.39 252.474C295.574 252.489 295.759 252.46 295.93 252.39C297.979 251.837 299.788 250.509 301.886 250.202C302.981 250.036 304.249 250.103 305.012 249.298C305.338 248.9 305.566 248.43 305.677 247.927C306.132 246.347 307.073 243.01 306.12 241.473C305.744 240.858 304.834 240.354 304.274 239.899C303.313 239.095 302.311 238.342 301.271 237.643Z" fill="url(#paint21_linear_1959_4822)"/>
<path d="M335.563 235.122C335.206 234.839 334.782 234.655 334.332 234.587C334.108 234.559 333.882 234.615 333.696 234.743C333.51 234.871 333.377 235.063 333.323 235.282C333.323 235.594 333.429 235.898 333.625 236.142L334.455 237.439C334.56 237.574 334.622 237.736 334.634 237.906C334.603 238.337 334.019 238.423 333.582 238.367C330.874 238.023 328.173 237.181 325.472 237.544C325.264 237.547 325.065 237.626 324.912 237.765C324.832 237.882 324.795 238.023 324.807 238.164C324.82 238.305 324.88 238.438 324.979 238.54C325.183 238.736 325.433 238.877 325.705 238.951C327.218 239.505 328.771 239.941 330.351 240.255C330.173 240.697 329.588 240.771 329.121 240.789C327.813 240.843 326.511 240.993 325.226 241.238C324.493 241.373 323.595 241.736 323.589 242.467C323.61 242.71 323.706 242.939 323.863 243.124C324.021 243.31 324.233 243.441 324.469 243.5C324.945 243.612 325.438 243.628 325.921 243.549C327.615 243.408 329.319 243.451 331.003 243.678C329.184 243.887 327.456 244.589 326.007 245.707C325.873 245.797 325.761 245.917 325.681 246.057C325.655 246.151 325.647 246.249 325.659 246.345C325.671 246.442 325.702 246.535 325.75 246.62C325.798 246.704 325.862 246.778 325.939 246.838C326.016 246.898 326.104 246.941 326.198 246.967C326.586 247.051 326.99 247.03 327.367 246.906C329.049 246.512 330.766 246.29 332.493 246.242C331.452 246.721 330.483 247.341 329.613 248.086C329.349 248.289 329.138 248.553 328.997 248.854C328.928 249.007 328.906 249.177 328.934 249.343C328.963 249.508 329.041 249.662 329.157 249.782C329.316 249.879 329.494 249.937 329.679 249.952C329.864 249.967 330.05 249.939 330.222 249.868C332.265 249.315 334.074 247.987 336.172 247.68C337.267 247.514 338.535 247.582 339.298 246.777C339.624 246.378 339.852 245.908 339.963 245.406C340.424 243.826 341.359 240.488 340.406 238.945C340.03 238.331 339.12 237.833 338.56 237.378C337.601 236.574 336.601 235.821 335.563 235.122Z" fill="url(#paint22_linear_1959_4822)"/>
</g>
<defs>
<linearGradient id="paint0_linear_1959_4822" x1="17.5614" y1="343.746" x2="92.2746" y2="343.746" gradientUnits="userSpaceOnUse">
<stop stop-color="#183866"/>
<stop offset="1" stop-color="#1A7FC1"/>
</linearGradient>
<linearGradient id="paint1_linear_1959_4822" x1="167.855" y1="169.411" x2="-298.844" y2="191" gradientUnits="userSpaceOnUse">
<stop stop-opacity="0"/>
<stop offset="0.97" stop-color="#0C0C11"/>
<stop offset="0.98" stop-color="#312F43"/>
<stop offset="0.99" stop-color="#3F3D56"/>
</linearGradient>
<linearGradient id="paint2_linear_1959_4822" x1="-7.29781" y1="237.335" x2="204.1" y2="204.377" gradientUnits="userSpaceOnUse">
<stop stop-opacity="0"/>
<stop offset="0.97" stop-color="#0C0C11"/>
<stop offset="0.98" stop-color="#312F43"/>
<stop offset="0.99" stop-color="#3F3D56"/>
</linearGradient>
<linearGradient id="paint3_linear_1959_4822" x1="13.1988" y1="228.047" x2="162.544" y2="219.048" gradientUnits="userSpaceOnUse">
<stop stop-opacity="0"/>
<stop offset="0.29" stop-opacity="0.29"/>
<stop offset="0.97" stop-color="#0C0C11"/>
<stop offset="0.98" stop-color="#312F43"/>
<stop offset="0.99" stop-color="#3F3D56"/>
</linearGradient>
<linearGradient id="paint4_linear_1959_4822" x1="130.88" y1="318.721" x2="51.3331" y2="208.466" gradientUnits="userSpaceOnUse">
<stop stop-opacity="0"/>
<stop offset="0.84" stop-opacity="0.66"/>
<stop offset="0.97"/>
</linearGradient>
<linearGradient id="paint5_linear_1959_4822" x1="99.1724" y1="305.383" x2="2.89941" y2="312.996" gradientUnits="userSpaceOnUse">
<stop stop-opacity="0"/>
<stop offset="0.87" stop-opacity="0.66"/>
<stop offset="1"/>
</linearGradient>
<linearGradient id="paint6_linear_1959_4822" x1="215.371" y1="-14.2125" x2="220.468" y2="414.479" gradientUnits="userSpaceOnUse">
<stop stop-opacity="0"/>
<stop offset="0.5" stop-opacity="0.38"/>
<stop offset="0.97" stop-color="#0C0C11"/>
<stop offset="0.98" stop-color="#312F43"/>
<stop offset="0.99" stop-color="#3F3D56"/>
</linearGradient>
<linearGradient id="paint7_linear_1959_4822" x1="56.2164" y1="36.4394" x2="53.5082" y2="53.6396" gradientUnits="userSpaceOnUse">
<stop stop-color="#183866"/>
<stop offset="1" stop-color="#1A7FC1"/>
</linearGradient>
<linearGradient id="paint8_linear_1959_4822" x1="68.9598" y1="36.4456" x2="66.2517" y2="53.6457" gradientUnits="userSpaceOnUse">
<stop stop-color="#183866"/>
<stop offset="1" stop-color="#1A7FC1"/>
</linearGradient>
<linearGradient id="paint9_linear_1959_4822" x1="81.7032" y1="36.4517" x2="78.995" y2="53.6519" gradientUnits="userSpaceOnUse">
<stop stop-color="#183866"/>
<stop offset="1" stop-color="#1A7FC1"/>
</linearGradient>
<linearGradient id="paint10_linear_1959_4822" x1="233.339" y1="42.9916" x2="198.292" y2="265.739" gradientUnits="userSpaceOnUse">
<stop offset="0.01"/>
<stop offset="0.99" stop-opacity="0"/>
</linearGradient>
<linearGradient id="paint11_linear_1959_4822" x1="213.088" y1="93.1207" x2="212.271" y2="145.395" gradientUnits="userSpaceOnUse">
<stop offset="0.01"/>
<stop offset="0.99" stop-opacity="0"/>
</linearGradient>
<linearGradient id="paint12_linear_1959_4822" x1="312.599" y1="227.211" x2="387.25" y2="299.692" gradientUnits="userSpaceOnUse">
<stop offset="0.01"/>
<stop offset="0.15" stop-opacity="0.52"/>
<stop offset="0.99" stop-opacity="0"/>
</linearGradient>
<linearGradient id="paint13_linear_1959_4822" x1="334.788" y1="303.938" x2="248.494" y2="230.695" gradientUnits="userSpaceOnUse">
<stop offset="0.01"/>
<stop offset="0.16" stop-opacity="0.52"/>
<stop offset="1" stop-opacity="0"/>
</linearGradient>
<linearGradient id="paint14_linear_1959_4822" x1="338.344" y1="308.505" x2="468.255" y2="275.432" gradientUnits="userSpaceOnUse">
<stop offset="0.01"/>
<stop offset="0.15" stop-opacity="0.52"/>
<stop offset="0.99" stop-opacity="0"/>
</linearGradient>
<linearGradient id="paint15_linear_1959_4822" x1="328.401" y1="255.242" x2="428.608" y2="190.249" gradientUnits="userSpaceOnUse">
<stop offset="0.01"/>
<stop offset="0.15" stop-opacity="0.52"/>
<stop offset="0.99" stop-opacity="0"/>
</linearGradient>
<linearGradient id="paint16_linear_1959_4822" x1="340.756" y1="226.94" x2="430.488" y2="253.25" gradientUnits="userSpaceOnUse">
<stop offset="0.01"/>
<stop offset="0.15" stop-opacity="0.52"/>
<stop offset="0.99" stop-opacity="0"/>
</linearGradient>
<linearGradient id="paint17_linear_1959_4822" x1="329.096" y1="198.487" x2="349.99" y2="203.878" gradientUnits="userSpaceOnUse">
<stop stop-color="#ECC4D7"/>
<stop offset="0.42" stop-color="#EFD4D1"/>
<stop offset="1" stop-color="#F2EAC9"/>
</linearGradient>
<linearGradient id="paint18_linear_1959_4822" x1="327.435" y1="189.321" x2="396.291" y2="163.586" gradientUnits="userSpaceOnUse">
<stop offset="0.01"/>
<stop offset="0.03" stop-opacity="0.93"/>
<stop offset="0.51" stop-opacity="0.05"/>
<stop offset="0.58" stop-opacity="0.03"/>
<stop offset="0.99" stop-opacity="0"/>
</linearGradient>
<linearGradient id="paint19_linear_1959_4822" x1="333.908" y1="196.397" x2="380.98" y2="193.237" gradientUnits="userSpaceOnUse">
<stop offset="0.01"/>
<stop offset="0.15" stop-opacity="0.52"/>
<stop offset="0.99" stop-opacity="0"/>
</linearGradient>
<linearGradient id="paint20_linear_1959_4822" x1="334.588" y1="208.51" x2="357.109" y2="226.074" gradientUnits="userSpaceOnUse">
<stop stop-color="#ECC4D7"/>
<stop offset="0.42" stop-color="#EFD4D1"/>
<stop offset="1" stop-color="#F2EAC9"/>
</linearGradient>
<linearGradient id="paint21_linear_1959_4822" x1="298.243" y1="233.838" x2="293.361" y2="388.313" gradientUnits="userSpaceOnUse">
<stop offset="0.01"/>
<stop offset="0.15" stop-opacity="0.52"/>
<stop offset="0.99" stop-opacity="0"/>
</linearGradient>
<linearGradient id="paint22_linear_1959_4822" x1="332.443" y1="234.194" x2="327.561" y2="388.668" gradientUnits="userSpaceOnUse">
<stop offset="0.01"/>
<stop offset="0.15" stop-opacity="0.52"/>
<stop offset="0.99" stop-opacity="0"/>
</linearGradient>
<clipPath id="clip0_1959_4822">
<rect width="435" height="367" fill="white"/>
</clipPath>
</defs>
</svg>
